<svg xmlns="http://www.w3.org/2000/svg" width="737" height="737" viewBox="0 0 737 737" version="1.1"><path d="M 342 26.693 C 332.628 27.243, 310.545 30.018, 307.446 31.035 C 304.795 31.904, 304.901 31.947, 308.500 31.462 C 348.072 26.132, 386.031 25.794, 418 30.489 C 423.225 31.257, 429.525 32.127, 432 32.423 C 440.498 33.440, 430.463 31.237, 419 29.569 C 398.095 26.527, 365.531 25.311, 342 26.693 M 285.500 35.428 C 271.525 38.965, 258.279 43.071, 245.500 47.825 C 235.042 51.717, 224.850 56.184, 225.332 56.665 C 225.542 56.875, 229.317 55.504, 233.722 53.619 C 251.344 46.076, 278.781 37.606, 300 33.158 C 303.522 32.419, 303.848 32.206, 301.500 32.175 C 299.850 32.154, 292.650 33.618, 285.500 35.428 M 448.500 36.008 C 455.100 37.583, 464.288 40.024, 468.919 41.433 C 473.549 42.842, 477.530 43.803, 477.765 43.569 C 478.697 42.636, 442.442 32.952, 438.500 33.081 C 437.400 33.117, 441.900 34.434, 448.500 36.008 M 480.500 44.950 C 481.600 45.478, 487.450 47.793, 493.500 50.094 C 508.762 55.898, 528.793 65.549, 542.738 73.818 C 626.935 123.740, 685.927 205.918, 704.390 299.003 C 709.426 324.398, 710.362 334.666, 710.402 365 C 710.441 394.499, 709.508 405.681, 704.904 430.943 C 702.880 442.047, 702.694 443.639, 703.521 442.812 C 704.770 441.563, 709.954 405.932, 711.069 390.937 C 712.508 371.567, 711.803 341.036, 709.510 323.500 C 701.384 261.348, 677.169 204.164, 638.369 155.500 C 627.148 141.425, 599.810 114.028, 585.037 102.051 C 559.834 81.618, 525.636 61.617, 496.500 50.269 C 484.106 45.442, 475.721 42.654, 480.500 44.950 M 210.500 63.299 C 178.366 80.029, 152.496 98.786, 127.470 123.500 C 76.514 173.820, 43.744 234.679, 30.502 303.583 C 25.855 327.764, 23.337 363.262, 24.832 383.500 C 25.435 391.651, 25.597 389.062, 25.712 369.500 C 25.960 327.119, 31.806 291.608, 44.572 254.932 C 60.817 208.260, 86.800 166.748, 123 129.629 C 150.494 101.437, 176.678 81.918, 210 64.774 C 217.425 60.954, 223.688 57.642, 223.917 57.414 C 225.449 55.890, 220.884 57.892, 210.500 63.299 M 347.750 60.740 C 351.188 60.936, 356.813 60.936, 360.250 60.740 C 363.688 60.545, 360.875 60.385, 354 60.385 C 347.125 60.385, 344.313 60.545, 347.750 60.740 M 378.280 60.736 C 380.909 60.943, 384.959 60.940, 387.280 60.731 C 389.601 60.521, 387.450 60.352, 382.500 60.355 C 377.550 60.358, 375.651 60.530, 378.280 60.736 M 334.750 61.706 C 335.988 61.944, 338.012 61.944, 339.250 61.706 C 340.488 61.467, 339.475 61.272, 337 61.272 C 334.525 61.272, 333.512 61.467, 334.750 61.706 M 395.250 61.716 C 396.762 61.945, 399.238 61.945, 400.750 61.716 C 402.262 61.487, 401.025 61.300, 398 61.300 C 394.975 61.300, 393.738 61.487, 395.250 61.716 M 318 63.270 C 314.425 63.828, 311.965 64.451, 312.532 64.653 C 313.100 64.856, 317.600 64.393, 322.532 63.624 C 327.465 62.856, 329.925 62.233, 328 62.241 C 326.075 62.249, 321.575 62.712, 318 63.270 M 409 63.022 C 424.393 65.667, 438.217 68.417, 444.849 70.155 C 448.915 71.220, 452.414 71.920, 452.623 71.710 C 453.785 70.548, 420.581 63.452, 410 62.600 L 403.500 62.077 409 63.022 M 294 68.391 C 284.865 70.830, 281.912 71.814, 283.500 71.890 C 284.050 71.916, 289.450 70.635, 295.500 69.043 C 301.550 67.451, 305.600 66.143, 304.500 66.135 C 303.400 66.128, 298.675 67.143, 294 68.391 M 267.500 76.406 C 249.754 82.765, 246.009 84.370, 228.882 92.959 C 165.213 124.888, 113.592 179.202, 84.504 244.872 C 81.978 250.576, 80.094 255.427, 80.319 255.652 C 80.544 255.877, 81.747 253.685, 82.994 250.780 C 103.930 202.001, 134.718 161.298, 175.500 128.484 C 204.313 105.301, 234.732 88.656, 271.500 75.953 C 277.550 73.863, 281.825 72.142, 281 72.130 C 280.175 72.117, 274.100 74.042, 267.500 76.406 M 468.500 77.429 C 486.052 83.661, 499.417 89.546, 514 97.464 C 525.939 103.946, 549.537 119.393, 558.563 126.636 C 569.324 135.269, 588.335 152.712, 594.500 159.609 C 597.800 163.301, 602.232 168.161, 604.349 170.410 C 607.979 174.267, 607.950 174.189, 603.849 169.057 C 571.815 128.967, 514.354 90.562, 461.500 73.916 C 449.859 70.249, 453.681 72.168, 468.500 77.429 M 361.784 141.738 C 364.689 141.941, 369.189 141.939, 371.784 141.734 C 374.378 141.528, 372 141.363, 366.500 141.365 C 361 141.368, 358.878 141.536, 361.784 141.738 M 341.180 155.750 C 341.363 169.697, 341.750 168.043, 342.234 151.248 C 342.380 146.159, 342.163 141.996, 341.750 141.998 C 341.337 141.999, 341.081 148.188, 341.180 155.750 M 390.081 145.750 C 390.560 147.813, 391.052 154, 391.175 159.500 C 391.386 168.996, 391.416 169.122, 391.768 162 C 392.197 153.310, 391.212 142, 390.026 142 C 389.577 142, 389.602 143.688, 390.081 145.750 M 326 174.399 C 295.948 183.867, 270.561 199.430, 248.028 222.200 C 217.354 253.194, 200.467 289.317, 193.891 338 C 192.104 351.229, 192.382 382.644, 194.422 398 C 197.465 420.906, 204.003 442.773, 214.006 463.500 C 232.248 501.296, 266.135 534.088, 302.939 549.557 C 312.640 553.634, 334.127 560.019, 337.958 559.963 C 339.356 559.943, 334.650 558.404, 327.500 556.544 C 296.881 548.579, 272.317 534.501, 249.924 512.086 C 225.877 488.013, 209.521 458.766, 200.565 423.824 C 195.719 404.915, 193.844 389.067, 193.782 366.500 C 193.698 335.574, 198.313 309.684, 208.515 283.836 C 229.162 231.531, 275.784 189.663, 330.998 173.844 C 336.224 172.347, 339.600 171.115, 338.500 171.107 C 337.400 171.098, 331.775 172.580, 326 174.399 M 416.606 175.934 C 452.012 186.347, 476.775 202.018, 501.952 229.947 L 508.860 237.610 492.796 252.555 C 483.961 260.775, 473.861 270.129, 470.353 273.341 L 463.974 279.183 455.831 271.523 C 448.838 264.944, 436 255.106, 436 256.325 C 436 256.545, 439.261 259.149, 443.246 262.113 C 447.231 265.076, 453.513 270.350, 457.206 273.834 C 461.612 277.990, 464.364 279.902, 465.210 279.395 C 465.920 278.970, 473.925 271.592, 483 263 C 492.075 254.407, 501.855 245.155, 504.734 242.438 L 509.968 237.500 502.234 228.995 C 484.204 209.168, 468.661 197.219, 447.500 186.920 C 435.235 180.950, 417.665 174.601, 410.500 173.549 C 408.300 173.226, 411.048 174.300, 416.606 175.934 M 617.241 187.375 C 626.650 200.026, 638.734 219.363, 645.012 231.818 C 646.764 235.293, 648.436 237.897, 648.728 237.605 C 649.419 236.914, 635.383 211.935, 628.159 201 C 621.634 191.122, 611.579 177.721, 609.266 175.817 C 608.386 175.093, 611.975 180.294, 617.241 187.375 M 354.034 238.690 C 345.266 240.248, 329.447 245.468, 328.410 247.146 C 328.085 247.672, 329.547 247.362, 331.659 246.457 C 344.171 241.098, 353.462 239.093, 370.500 238.076 L 383.500 237.301 373 237.244 C 367.225 237.212, 358.690 237.863, 354.034 238.690 M 388.781 238.938 C 401.774 241.032, 401.614 241.016, 399.234 240.010 C 397.987 239.483, 393.937 238.835, 390.234 238.570 C 383.824 238.110, 383.754 238.128, 388.781 238.938 M 649.042 239.011 C 649.019 239.293, 651.053 244.243, 653.563 250.011 C 658.673 261.758, 665.690 281.916, 669.397 295.500 C 670.748 300.450, 671.886 303.561, 671.927 302.414 C 672.046 299.008, 663.711 272.493, 658.122 258.500 C 653.489 246.900, 649.157 237.603, 649.042 239.011 M 409.500 243.803 C 413.900 245.366, 420.762 248.305, 424.750 250.335 C 432.659 254.360, 434.625 254.638, 427.661 250.746 C 421.584 247.349, 409.172 242.333, 405 241.587 C 403.075 241.243, 405.100 242.240, 409.500 243.803 M 317.586 253.008 C 304.277 261.696, 287.532 279.480, 281.108 291.750 C 278.731 296.289, 280.810 293.792, 286.087 285.771 C 295.170 271.964, 307.555 260.020, 321.500 251.620 C 324.800 249.632, 326.995 248.004, 326.378 248.003 C 325.761 248.001, 321.805 250.253, 317.586 253.008 M 75.121 268.208 C 69.749 282.900, 64.370 302.059, 63.668 309 L 63.113 314.500 64.152 310 C 67.226 296.690, 72.518 278.213, 76.017 268.575 C 78.199 262.567, 79.819 257.485, 79.617 257.283 C 79.415 257.082, 77.392 261.998, 75.121 268.208 M 276.921 299.154 C 273.215 306.419, 268.113 321.648, 265.836 332.244 C 263.945 341.042, 263.629 345.627, 263.616 364.500 C 263.605 380.758, 264.023 388.653, 265.219 394.748 C 266.995 403.799, 271.077 418.257, 271.685 417.649 C 271.895 417.438, 270.927 413.329, 269.533 408.518 C 262.542 384.391, 262.275 348.851, 268.899 324 C 270.727 317.143, 276.579 301.524, 279.051 296.905 C 279.612 295.857, 279.839 295, 279.556 295 C 279.272 295, 278.087 296.869, 276.921 299.154 M 672.121 305.500 C 672.066 306.050, 672.927 311.675, 674.035 318 C 679.683 350.255, 679.064 393.247, 672.487 425.513 C 666.294 455.895, 656.114 485.745, 644.177 508.525 C 641.911 512.851, 640.241 516.574, 640.466 516.799 C 640.970 517.304, 648.844 501.718, 653.980 490.045 C 658.336 480.146, 665.792 457.932, 669.435 444 C 679.384 405.946, 681.700 363.219, 675.994 323 C 674.924 315.457, 672.308 303.636, 672.121 305.500 M 61.145 322.225 C 58.335 340.192, 57.797 349.920, 58.270 374.245 C 59.022 412.903, 64.244 441.438, 76.526 474 C 85.702 498.327, 95.215 517.076, 108.492 537 C 135.090 576.916, 164.621 606.382, 201.406 629.711 C 210.904 635.734, 237.897 650.027, 239.682 649.977 C 240.132 649.965, 233.750 646.450, 225.500 642.166 C 217.250 637.883, 206.675 631.973, 202 629.034 C 155.520 599.812, 115.575 554.848, 90.480 503.500 C 75.945 473.759, 66.801 444.790, 61.839 412.757 C 58.760 392.886, 58.498 344.530, 61.375 327.209 C 62.407 320.999, 63.033 315.700, 62.767 315.433 C 62.500 315.167, 61.771 318.223, 61.145 322.225 M 26.101 398.538 C 25.946 404.749, 28.563 424.148, 31.439 438.112 C 40.642 482.779, 59.648 526.897, 86.244 565.323 C 104.046 591.044, 130.366 619.304, 154 638.071 C 185.829 663.347, 222.928 683.484, 259.500 695.337 C 269.588 698.606, 290.855 703.995, 293.500 703.953 C 294.600 703.935, 287.850 701.955, 278.500 699.553 C 252.484 692.870, 237.971 687.390, 213.500 675.012 C 162.208 649.067, 120.916 612.951, 86.493 563.926 C 62.275 529.436, 43.161 486.165, 34.179 445.500 C 30.454 428.636, 29.741 424.500, 27.971 409.500 C 26.998 401.250, 26.156 396.317, 26.101 398.538 M 272.473 421 C 273.791 425.567, 282.662 443.460, 284.867 446 C 286.143 447.469, 285.600 446.026, 283.551 442.500 C 281.633 439.200, 278.418 432.675, 276.406 428 C 272.595 419.145, 271.243 416.739, 272.473 421 M 699.103 456.685 C 697.258 463.733, 694.006 474.281, 691.875 480.125 C 688.125 490.408, 687.124 494.109, 688.934 491 C 691.866 485.964, 703.522 447.066, 702.773 444.818 C 702.599 444.297, 700.947 449.636, 699.103 456.685 M 452.821 458.489 C 440.457 470.441, 429.056 478.706, 416.898 484.533 C 412.829 486.483, 410.625 487.777, 412 487.409 C 422.067 484.713, 442.093 470.951, 454.980 457.873 L 464.650 448.060 486.771 470.243 C 505.389 488.913, 508.702 492.669, 507.696 493.963 C 506.645 495.313, 506.715 495.332, 508.266 494.114 C 509.881 492.847, 508.172 490.835, 488.301 470.614 C 476.348 458.451, 466.104 448.208, 465.535 447.850 C 464.966 447.493, 459.244 452.280, 452.821 458.489 M 288.693 452.127 C 291.651 457.246, 307.700 472.622, 315.338 477.654 C 332.526 488.977, 348.791 493.942, 370.500 494.492 L 384.500 494.846 371.500 494.031 C 348.562 492.592, 334.191 488.334, 318.098 478.212 C 308.683 472.290, 295.953 460.630, 290.845 453.250 C 287.414 448.292, 286.074 447.593, 288.693 452.127 M 404 489.161 C 402.625 489.729, 397.675 491.008, 393 492.001 C 388.325 492.995, 385.625 493.843, 387 493.887 C 390.528 493.998, 401.842 491.496, 406.002 489.686 C 409.868 488.003, 407.991 487.510, 404 489.161 M 683.505 502.233 C 670.990 532.807, 649.962 567.040, 628.672 591.500 C 601.563 622.646, 566.873 650.848, 534 668.466 C 522.656 674.546, 497.868 685.969, 491.683 687.966 C 489.584 688.645, 488.064 689.397, 488.306 689.639 C 489.518 690.851, 521.010 676.889, 536.439 668.299 C 548.387 661.647, 571.493 646.105, 582 637.653 C 620.252 606.881, 652.127 568.293, 672.989 527.500 C 679.243 515.270, 688.408 494.075, 687.734 493.400 C 687.495 493.161, 685.592 497.136, 683.505 502.233 M 493.500 509.372 C 478.172 525.020, 466.866 533.338, 448.500 542.479 C 433.688 549.851, 421.234 554.201, 405.768 557.406 C 399.866 558.629, 394.775 559.891, 394.456 560.211 C 393.748 560.918, 405.386 558.744, 414.694 556.429 C 448.819 547.943, 480.822 527.559, 504.464 499.250 C 505.956 497.462, 507.025 496.023, 506.839 496.051 C 506.653 496.078, 500.650 502.073, 493.500 509.372 M 635.930 523.691 C 628.809 536.285, 613.444 558.049, 605.035 567.454 C 580.749 594.615, 557.431 614.882, 534.250 628.979 C 531.362 630.735, 529 632.374, 529 632.621 C 529 634.145, 549.711 620.245, 561.931 610.520 C 583.064 593.701, 602.323 573.745, 618.581 551.821 C 626.871 540.642, 640.431 519.098, 639.662 518.329 C 639.416 518.083, 637.737 520.496, 635.930 523.691 M 341.008 565.083 C 341.012 566.962, 341.687 573.883, 342.508 580.462 C 343.329 587.041, 344 592.787, 344 593.230 C 344 593.674, 354.457 593.916, 367.238 593.768 L 390.476 593.500 391.106 589 C 391.453 586.525, 391.974 579.325, 392.265 573 L 392.794 561.500 391.869 571 C 391.360 576.225, 390.619 583.200, 390.222 586.500 L 389.500 592.500 367.365 592.769 L 345.230 593.038 344.665 589.769 C 344.354 587.971, 343.573 581.100, 342.929 574.500 C 341.753 562.448, 340.993 558.722, 341.008 565.083 M 520.500 637.092 C 504.665 646.156, 483.362 655.363, 461.500 662.594 C 454.350 664.958, 449.057 666.917, 449.738 666.947 C 451.650 667.029, 469.226 661.249, 482 656.337 C 494.429 651.557, 521.940 638.229, 526 635.020 C 529.697 632.098, 528.312 632.620, 520.500 637.092 M 241 650.407 C 241 652.013, 273.632 663.569, 290.915 668.084 C 303.718 671.428, 329.375 676.052, 334.329 675.908 C 336.073 675.857, 331.875 674.957, 325 673.908 C 298.018 669.792, 267.658 661.393, 247.126 652.363 C 241.531 649.903, 241 649.734, 241 650.407 M 439.901 668.509 C 433.657 670.222, 413.601 673.622, 402 674.934 C 385.609 676.789, 385.282 676.856, 394.744 676.435 C 408.628 675.816, 448 669.144, 448 667.410 C 448 666.734, 444.783 667.171, 439.901 668.509 M 345 677.091 C 354.101 678.036, 384.001 678.158, 383.994 677.250 C 383.990 676.837, 373.753 676.481, 361.244 676.458 C 347.886 676.433, 341.183 676.695, 345 677.091 M 480 692.125 C 471.926 695.030, 441.971 702.605, 431 704.517 C 393.198 711.104, 347.994 711.619, 310.147 705.893 C 302.803 704.782, 296.597 704.070, 296.356 704.311 C 295.901 704.765, 311.569 707.316, 325.500 709.056 C 329.900 709.605, 344.525 710.320, 358 710.644 C 384.345 711.278, 404.331 709.932, 428.500 705.897 C 445.466 703.064, 475.804 695.277, 484.237 691.590 C 489.018 689.500, 486.367 689.834, 480 692.125" stroke="none" fill="#041e0a" fill-rule="evenodd"/><path d="M 348.083 25.364 C 348.313 25.564, 360.200 25.931, 374.500 26.179 C 388.800 26.427, 396.675 26.308, 392 25.914 C 383.185 25.172, 347.350 24.723, 348.083 25.364 M 336.728 26.722 C 338.503 26.943, 341.653 26.946, 343.728 26.730 C 345.802 26.513, 344.350 26.333, 340.500 26.328 C 336.650 26.324, 334.952 26.501, 336.728 26.722 M 325.750 27.706 C 326.988 27.944, 329.012 27.944, 330.250 27.706 C 331.488 27.467, 330.475 27.272, 328 27.272 C 325.525 27.272, 324.512 27.467, 325.750 27.706 M 340 28.110 C 333.675 28.551, 325.575 28.739, 322 28.527 C 317.361 28.252, 316.645 28.344, 319.500 28.846 L 323.500 29.549 318 30.236 C 314.975 30.614, 310.700 31.159, 308.500 31.448 C 305.181 31.883, 304.926 31.806, 307 30.999 C 309.235 30.130, 309.143 30.079, 306.125 30.514 C 304.269 30.781, 302.019 31.045, 301.125 31.100 C 300.231 31.155, 300.625 31.525, 302 31.922 C 304.146 32.543, 303.808 32.752, 299.614 33.404 C 285.022 35.672, 251.946 45.819, 233.722 53.619 C 229.317 55.504, 225.536 56.869, 225.319 56.652 C 225.102 56.435, 227.871 55.005, 231.474 53.474 C 235.076 51.943, 237.851 50.518, 237.641 50.308 C 236.714 49.380, 202.128 65.885, 197.466 69.479 C 196.385 70.313, 201.714 67.798, 209.309 63.890 C 216.903 59.982, 223.323 56.990, 223.575 57.241 C 223.826 57.493, 218.962 60.222, 212.766 63.305 C 179.684 79.769, 150.847 101.075, 123 129.629 C 67.956 186.070, 36.553 252.425, 27.462 331.500 C 26.495 339.912, 25.783 355.079, 25.679 369.500 C 25.573 384.264, 25.288 390.229, 24.939 385 L 24.373 376.500 24.311 384 C 24.276 388.125, 24.572 394.650, 24.967 398.500 L 25.685 405.500 25.943 400 C 26.142 395.773, 26.611 397.973, 27.971 409.500 C 29.741 424.500, 30.454 428.636, 34.179 445.500 C 41.211 477.339, 56.833 516.414, 73.849 544.732 C 87.937 568.176, 109.336 595.183, 129.142 614.514 C 155.765 640.500, 180.883 658.513, 213.500 675.012 C 237.971 687.390, 252.484 692.870, 278.500 699.553 C 287.850 701.955, 294.413 703.938, 293.083 703.960 C 291.754 703.982, 290.878 704.211, 291.135 704.469 C 291.812 705.145, 316.029 709.014, 319 708.921 C 322.773 708.802, 320.633 708.338, 307.700 706.471 C 301.209 705.534, 296.100 704.566, 296.346 704.320 C 296.592 704.074, 302.803 704.782, 310.147 705.893 C 347.994 711.619, 393.198 711.104, 431 704.517 C 441.839 702.628, 471.592 695.124, 480.414 692.053 C 483.667 690.921, 486.554 690.221, 486.831 690.497 C 487.107 690.774, 486.733 691, 486 691 C 485.267 691, 484.890 691.224, 485.164 691.497 C 485.437 691.770, 487.787 691.270, 490.385 690.385 C 492.983 689.499, 494.921 688.588, 494.693 688.360 C 494.464 688.131, 493.028 688.419, 491.500 689 C 489.972 689.581, 488.530 689.863, 488.294 689.628 C 488.059 689.392, 489.584 688.645, 491.683 687.966 C 497.868 685.969, 522.656 674.546, 534 668.466 C 560.548 654.238, 593.405 629.102, 614.874 606.596 C 618.380 602.922, 621.413 600.079, 621.614 600.281 C 622.020 600.687, 601.082 621.454, 594 627.670 C 579.383 640.500, 553.419 658.962, 538.750 666.957 C 534.487 669.280, 531 671.406, 531 671.681 C 531 673.819, 566.357 651.127, 580.856 639.684 C 614.217 613.355, 645.751 577.475, 664.511 544.500 C 669.235 536.197, 666.412 539.991, 659.088 551.787 C 655.298 557.892, 649.588 566.400, 646.399 570.694 C 638.539 581.277, 623.717 599.050, 623.190 598.523 C 622.955 598.288, 625.463 595.037, 628.764 591.298 C 649.452 567.861, 670.975 532.843, 683.505 502.233 C 685.592 497.136, 687.483 493.150, 687.708 493.375 C 687.933 493.600, 687.410 495.477, 686.545 497.545 C 685.681 499.614, 685.155 501.489, 685.377 501.711 C 685.600 501.933, 687.191 498.424, 688.913 493.913 C 690.636 489.402, 691.855 485.521, 691.622 485.289 C 691.390 485.056, 690.660 486.501, 690 488.500 C 689.340 490.499, 688.585 491.919, 688.322 491.655 C 688.059 491.392, 689.622 486.299, 691.796 480.338 C 693.970 474.377, 697.258 463.733, 699.103 456.685 C 700.947 449.636, 702.603 444.310, 702.783 444.849 C 702.963 445.388, 701.924 450.181, 700.474 455.501 C 699.025 460.820, 698.027 465.360, 698.255 465.589 C 698.790 466.124, 703.686 447.750, 704.407 442.500 C 704.827 439.445, 704.749 439.091, 704.078 441 C 702.634 445.110, 702.889 441.993, 704.904 430.943 C 709.508 405.681, 710.441 394.499, 710.402 365 C 710.373 343.477, 709.937 333.441, 708.617 324.003 C 702.341 279.119, 691.047 243.978, 670.866 206.545 C 658.763 184.095, 642.233 160.264, 627.847 144.523 C 625.036 141.447, 622.953 138.714, 623.218 138.448 C 623.659 138.008, 636.642 153.194, 644.993 163.917 C 646.885 166.346, 652.048 173.838, 656.466 180.566 C 667.321 197.092, 667.309 197.074, 665.876 194 C 664.074 190.134, 652.311 172.396, 645.650 163.500 C 636.359 151.092, 615.935 127.914, 613.601 127.130 C 612.995 126.927, 614.975 129.386, 618 132.595 C 621.025 135.804, 617.650 132.812, 610.500 125.946 C 603.350 119.081, 592.888 109.696, 587.250 105.090 C 581.612 100.485, 577 96.501, 577 96.236 C 577 95.119, 595.648 110.726, 605.250 119.878 C 609.513 123.941, 613 126.938, 613 126.538 C 613 126.138, 609.607 122.642, 605.460 118.770 C 594.139 108.197, 574.798 92.240, 576.347 94.750 C 577.673 96.899, 576.482 96.212, 565.340 88.396 C 543.386 72.996, 517.676 59.288, 493.500 50.094 C 487.450 47.793, 481.600 45.478, 480.500 44.950 C 475.721 42.654, 484.106 45.442, 496.500 50.269 C 503.650 53.054, 516.813 59.037, 525.750 63.565 C 534.688 68.092, 542 71.641, 542 71.451 C 542 70.665, 523.580 61.141, 511 55.423 C 496.543 48.851, 477.064 41.603, 476.195 42.471 C 475.905 42.762, 476.267 43, 477 43 C 477.733 43, 478.109 43.224, 477.836 43.498 C 477.562 43.772, 473.549 42.842, 468.919 41.433 C 464.288 40.024, 455.100 37.583, 448.500 36.008 C 441.900 34.434, 437.407 33.113, 438.516 33.073 C 439.625 33.033, 446.600 34.558, 454.016 36.462 C 472.125 41.112, 473.363 41.356, 467.257 39.080 C 461.023 36.757, 437.585 31.352, 430.500 30.603 L 425.500 30.075 431 31.508 C 436.362 32.905, 436.387 32.928, 432 32.413 C 429.525 32.122, 423.225 31.259, 418 30.496 C 395.779 27.247, 365.594 26.324, 340 28.110 M 403.250 27.716 C 404.762 27.945, 407.238 27.945, 408.750 27.716 C 410.262 27.487, 409.025 27.300, 406 27.300 C 402.975 27.300, 401.738 27.487, 403.250 27.716 M 416 29.051 C 422.035 30.125, 426.765 30.032, 421.500 28.943 C 419.300 28.488, 416.150 28.146, 414.500 28.183 C 412.250 28.233, 412.626 28.451, 416 29.051 M 290 33.244 C 287.525 33.810, 285.950 34.425, 286.500 34.610 C 287.050 34.795, 289.975 34.333, 293 33.584 C 299.365 32.007, 296.719 31.707, 290 33.244 M 280.500 35.499 C 279.950 35.686, 273.986 37.524, 267.248 39.584 C 260.509 41.644, 255.174 43.508, 255.393 43.727 C 255.612 43.945, 260.900 42.539, 267.145 40.603 C 273.390 38.666, 280.075 36.653, 282 36.131 C 283.925 35.608, 284.600 35.175, 283.500 35.169 C 282.400 35.163, 281.050 35.311, 280.500 35.499 M 352 60.971 L 362.500 61.500 348 62.259 C 340.025 62.677, 331.475 63.186, 329 63.390 C 324.841 63.734, 324.765 63.701, 328 62.952 C 330.481 62.378, 329.608 62.286, 325 62.635 C 321.425 62.906, 316.925 63.526, 315 64.013 C 312.143 64.736, 312.602 64.820, 317.500 64.470 C 322.743 64.096, 322.301 64.279, 314 65.916 C 284.968 71.640, 257.309 80.783, 234.825 92.088 C 230.408 94.309, 226.615 95.948, 226.397 95.730 C 225.124 94.458, 258.672 80.009, 274.727 74.914 C 278.702 73.653, 281.768 72.435, 281.541 72.207 C 280.983 71.650, 266.789 76.374, 254.500 81.207 C 234.314 89.146, 196.129 109.782, 197.505 112.008 C 197.786 112.463, 194.984 114.954, 191.279 117.544 C 158.371 140.548, 124.442 176.690, 105.629 208.780 C 102.978 213.301, 100.595 217, 100.332 217 C 98.808 217, 113.748 193.883, 123.921 180.500 C 129.741 172.844, 146.119 154.478, 150.863 150.288 C 152.863 148.521, 153.984 147.058, 153.354 147.038 C 152.724 147.017, 148.715 150.713, 144.446 155.250 C 123.806 177.188, 108.186 198.948, 93.662 226 C 88.376 235.845, 79.723 255.057, 80.310 255.644 C 80.531 255.864, 82.191 252.649, 84 248.500 C 85.809 244.351, 87.465 241.132, 87.679 241.346 C 87.894 241.561, 86.556 245.058, 84.706 249.118 C 82.856 253.178, 79.851 260.672, 78.027 265.772 C 76.203 270.872, 74.534 274.867, 74.318 274.652 C 74.103 274.436, 75.290 270.523, 76.957 265.957 C 78.623 261.390, 79.821 257.488, 79.618 257.285 C 78.979 256.646, 71.135 278.992, 67.608 291.500 C 64.485 302.575, 61.728 318.172, 63.985 312 C 64.651 310.179, 64.742 310.858, 64.321 314.500 C 63.648 320.326, 63.043 321.566, 62.898 317.417 C 62.798 314.582, 62.772 314.598, 61.949 318 C 57.315 337.157, 56.775 386.793, 60.911 413.309 C 65.130 440.353, 71.797 463.838, 82.538 489.500 C 94.666 518.474, 120.351 557.464, 143.227 581.628 C 159.749 599.079, 181.660 617.188, 201.406 629.711 C 210.904 635.734, 237.897 650.027, 239.682 649.977 C 240.132 649.965, 233.750 646.450, 225.500 642.166 C 198.379 628.084, 183.016 617.419, 159.212 596.149 C 154.653 592.076, 151.159 588.507, 151.447 588.219 C 151.735 587.932, 155.690 591.265, 160.235 595.627 C 182.620 617.106, 217.498 639.337, 248.729 652.031 C 253.254 653.871, 256.783 655.551, 256.569 655.764 C 256.356 655.978, 252.907 654.777, 248.905 653.095 C 244.903 651.414, 241.464 650.203, 241.262 650.404 C 239.920 651.747, 274.027 663.736, 292.752 668.504 C 307.774 672.328, 331.632 676.388, 335.153 675.718 C 336.891 675.388, 336.592 675.222, 334 675.079 C 332.075 674.972, 328.700 674.480, 326.500 673.985 C 322.266 673.032, 322.080 673.020, 342 674.982 L 349.500 675.720 344 676.013 L 338.500 676.305 345 677.036 C 353.776 678.022, 383.999 678.188, 384.005 677.250 C 384.007 676.837, 388.395 676.432, 393.755 676.348 C 409.737 676.100, 451.079 668.712, 446.500 666.922 C 445.192 666.411, 445.019 666.112, 446 666.057 C 446.825 666.010, 448.625 665.745, 450 665.466 C 452.179 665.024, 452.243 665.081, 450.500 665.909 C 446.367 667.873, 451.314 666.892, 460.738 663.879 C 482.810 656.824, 518.910 640.805, 526 634.921 C 527.375 633.780, 525.462 634.495, 521.750 636.509 C 518.038 638.524, 515 639.947, 515 639.672 C 515 639.397, 518.038 637.484, 521.750 635.420 C 525.462 633.357, 529.625 631.015, 531 630.216 L 533.500 628.763 531 630.942 L 528.500 633.120 531.500 631.641 C 536.905 628.975, 553.505 617.231, 553.290 616.224 C 553.175 615.684, 557.225 611.962, 562.290 607.953 C 575.654 597.377, 602.072 570.423, 612.928 556.286 C 618.087 549.569, 622.634 544.274, 623.032 544.520 C 623.838 545.018, 626.581 541.059, 634.649 527.754 C 637.647 522.811, 639.900 518.567, 639.657 518.324 C 639.414 518.080, 637.726 520.496, 635.908 523.691 C 631.232 531.904, 624.008 543, 623.337 543 C 623.025 543, 623.597 541.763, 624.609 540.250 C 625.620 538.738, 629.311 532.775, 632.810 527 C 636.310 521.225, 639.581 516.611, 640.078 516.747 C 640.576 516.883, 643.051 512.875, 645.580 507.841 C 663.189 472.779, 674.776 432.097, 678.005 394 C 680.407 365.649, 678.475 329.394, 673.527 310 L 672.124 304.500 672.568 309.500 C 672.876 312.975, 672.253 311.318, 670.522 304.065 C 669.153 298.326, 667.531 292.109, 666.917 290.248 C 666.303 288.388, 666.016 286.651, 666.279 286.388 C 666.542 286.125, 667.738 289.643, 668.938 294.205 C 671.644 304.500, 671.823 304.993, 671.921 302.419 C 672.027 299.616, 664.849 275.771, 660.354 264 C 656.023 252.655, 649.848 238.818, 649.343 239.323 C 649.145 239.522, 650.363 242.729, 652.050 246.450 C 653.737 250.171, 654.931 253.403, 654.702 253.631 C 654.473 253.860, 653.370 251.899, 652.250 249.274 C 651.129 246.648, 649.467 242.772, 648.555 240.659 C 647.477 238.161, 647.324 237.082, 648.119 237.573 C 650.003 238.738, 648.706 236.001, 640.520 221.541 C 629.844 202.681, 614.262 179.882, 609.312 175.880 C 608.373 175.121, 611.039 179.052, 615.238 184.616 C 623.105 195.044, 631.588 207.744, 636.532 216.500 C 641.128 224.638, 638.327 220.960, 631.895 210.410 C 620.973 192.497, 605.840 172.711, 593.170 159.780 C 589.010 155.534, 585.845 151.821, 586.137 151.530 C 586.429 151.238, 590.005 154.700, 594.084 159.224 C 605.657 172.058, 608.881 175.297, 603.870 169.057 C 575.259 133.423, 524.074 97.109, 478.003 79.757 C 465.831 75.173, 454.967 71.700, 454.442 72.225 C 454.241 72.426, 459.268 74.299, 465.613 76.387 C 471.958 78.475, 476.968 80.365, 476.747 80.587 C 476.525 80.808, 472.329 79.603, 467.422 77.909 C 462.515 76.216, 451.750 73.086, 443.500 70.956 C 435.250 68.825, 429.400 67.068, 430.500 67.050 C 431.600 67.033, 436.950 68.152, 442.389 69.537 C 452.973 72.234, 456.836 72.391, 447.252 69.735 C 438.136 67.209, 417.066 63.165, 410.500 62.681 C 405.902 62.342, 405.318 62.431, 408 63.061 C 410.608 63.674, 409.870 63.771, 405.103 63.442 C 401.585 63.199, 397.535 62.929, 396.103 62.843 C 394.671 62.756, 395.750 62.374, 398.500 61.993 C 401.442 61.585, 397.531 61.393, 389 61.526 C 378.314 61.692, 376.736 61.587, 383 61.126 C 388.218 60.742, 381.848 60.489, 366.500 60.471 C 352.512 60.455, 346.125 60.675, 352 60.971 M 334.750 61.706 C 335.988 61.944, 338.012 61.944, 339.250 61.706 C 340.488 61.467, 339.475 61.272, 337 61.272 C 334.525 61.272, 333.512 61.467, 334.750 61.706 M 418 65.536 C 426.471 67.283, 430.304 67.202, 422.500 65.441 C 419.200 64.697, 415.375 64.112, 414 64.142 C 412.625 64.171, 414.425 64.799, 418 65.536 M 294 68.391 C 284.865 70.830, 281.912 71.814, 283.500 71.890 C 284.050 71.916, 289.450 70.635, 295.500 69.043 C 301.550 67.451, 305.600 66.143, 304.500 66.135 C 303.400 66.128, 298.675 67.143, 294 68.391 M 543 72.264 C 544.203 73.551, 574.930 93.696, 574.412 92.858 C 573.767 91.814, 548.898 75.044, 545 73.024 C 543.625 72.312, 542.725 71.970, 543 72.264 M 175.942 82.750 C 160.966 92.877, 153.972 98.300, 139.821 110.754 C 122.865 125.677, 100.007 150.685, 91.154 164 C 88.270 168.336, 90.545 165.734, 99.124 154.880 C 120.386 127.982, 146.208 103.982, 174.500 84.821 C 186.583 76.637, 188.817 75, 187.901 75 C 187.626 75, 182.244 78.487, 175.942 82.750 M 478 81.252 C 478.275 81.527, 482.100 83.337, 486.500 85.275 C 490.900 87.213, 497.650 90.222, 501.500 91.962 C 505.350 93.702, 508.050 94.677, 507.500 94.129 C 506.950 93.580, 500.955 90.647, 494.177 87.610 C 482.364 82.317, 476.929 80.181, 478 81.252 M 509 95.355 C 509 95.610, 512.487 97.727, 516.750 100.058 C 534.987 110.032, 555.241 124.399, 573.500 140.311 C 581.793 147.539, 581.950 147.631, 575.500 141.484 C 564.290 130.801, 554.584 123.190, 538.524 112.489 C 524.903 103.413, 509 94.184, 509 95.355 M 217.500 99.855 C 209.111 104.442, 199 110.855, 199 111.590 C 199 112.194, 199.218 112.069, 208 106.431 C 211.575 104.136, 216.863 101.068, 219.750 99.612 C 222.637 98.157, 225 96.749, 225 96.483 C 225 95.754, 225.004 95.752, 217.500 99.855 M 184 120.630 C 177.675 125.370, 168.900 132.453, 164.500 136.370 C 154.283 145.465, 154 145.738, 154 146.472 C 154 146.809, 158.339 143.222, 163.643 138.500 C 171.995 131.065, 186.989 119.256, 195.005 113.802 C 196.377 112.869, 197.050 112.084, 196.500 112.059 C 195.950 112.033, 190.325 115.890, 184 120.630 M 347 140.979 L 340.500 141.500 340 155.435 L 339.500 169.369 332.500 171.581 C 328.650 172.797, 325.950 173.834, 326.500 173.885 C 327.050 173.937, 329.709 173.308, 332.409 172.489 C 335.109 171.670, 338.034 171.027, 338.909 171.061 C 339.784 171.095, 336.224 172.347, 330.998 173.844 C 307.669 180.528, 281.051 194.433, 264.202 208.739 C 261.288 211.213, 258.680 213.013, 258.407 212.740 C 257.048 211.381, 280.373 195.032, 293.733 187.979 C 298.261 185.589, 301.792 183.459, 301.580 183.247 C 300.570 182.237, 281.130 193.671, 270.280 201.656 C 259.151 209.847, 247.079 220.976, 239.360 230.160 C 231.366 239.673, 226.533 246, 227.261 246 C 227.535 246, 229.681 243.455, 232.029 240.345 C 237.423 233.201, 249.269 220.358, 254.500 215.983 C 256.700 214.143, 254.393 216.882, 249.374 222.069 C 244.355 227.256, 237.420 235.100, 233.963 239.500 C 230.506 243.900, 227.318 247.393, 226.878 247.263 C 226.438 247.133, 224.726 248.992, 223.072 251.395 C 219.611 256.426, 208.989 276.225, 209.021 277.586 C 209.033 278.089, 211.510 273.812, 214.525 268.083 C 220.780 256.195, 226.040 247.706, 226.725 248.392 C 226.982 248.649, 225.859 250.804, 224.229 253.180 C 216.374 264.631, 207.143 285.085, 202.496 301.336 C 196.198 323.362, 193.716 341.926, 193.782 366.500 C 193.886 404.531, 200.538 433.951, 216.122 465.291 C 225.032 483.210, 235.358 497.505, 249.924 512.086 C 272.317 534.501, 296.881 548.579, 327.500 556.544 C 334.650 558.404, 339.375 559.971, 338 560.026 C 335.508 560.126, 335.507 560.130, 337.750 561.031 C 339.607 561.777, 340.027 562.772, 340.157 566.718 L 340.314 571.500 340.916 566.500 C 341.449 562.077, 341.666 562.942, 342.803 574 C 343.510 580.875, 344.345 587.971, 344.659 589.769 L 345.230 593.038 367.365 592.769 L 389.500 592.500 390.218 587 C 390.614 583.975, 391.272 577, 391.682 571.500 C 392.359 562.408, 392.484 561.954, 393.056 566.500 L 393.686 571.500 393.968 566.750 C 394.123 564.138, 394.306 561.492, 394.375 560.870 C 394.444 560.249, 399.450 558.715, 405.500 557.462 C 421.231 554.202, 433.615 549.887, 448.500 542.479 C 466.772 533.385, 478.131 525.033, 493.938 509.070 C 501.328 501.607, 507.033 496.175, 506.615 497 C 506.197 497.825, 506.992 497.169, 508.381 495.542 L 510.907 492.583 495.704 477.042 C 487.342 468.494, 480.050 461.337, 479.500 461.138 C 478.950 460.940, 485.474 467.915, 493.999 476.638 C 505.058 487.957, 503.411 486.488, 488.249 471.509 C 476.562 459.964, 467.007 450.064, 467.016 449.509 C 467.025 448.954, 469.706 451.425, 472.973 455 C 476.240 458.575, 478.933 461.038, 478.956 460.473 C 479 459.435, 465.934 446, 464.880 446 C 464.567 446, 459.168 451.063, 452.881 457.250 C 446.595 463.438, 437.584 471.089, 432.858 474.254 C 424.526 479.833, 410.492 486.984, 407.816 487.015 C 406.798 487.027, 406.820 487.233, 407.913 487.925 C 409.790 489.113, 398.578 492.603, 390.464 493.356 C 385.970 493.773, 385.239 493.682, 387.500 492.988 C 389.989 492.224, 389.667 492.147, 385.610 492.534 C 382.921 492.790, 376.621 493.089, 371.610 493.198 L 362.500 493.395 373 494.064 C 383.002 494.701, 382.859 494.719, 370 494.435 C 348.891 493.969, 332.435 488.917, 315.338 477.654 C 308.261 472.992, 290 455.780, 290 453.773 C 290 453.193, 291.841 454.809, 294.090 457.365 C 299.709 463.748, 308.251 471.812, 312.209 474.469 C 322.873 481.629, 323.470 481.124, 313 473.799 C 309.425 471.298, 302.900 465.482, 298.501 460.876 C 294.101 456.269, 290.177 452.608, 289.780 452.740 C 289.384 452.872, 288.523 451.972, 287.866 450.740 C 286.749 448.643, 286.789 448.596, 288.506 450 C 289.685 450.964, 289.338 449.981, 287.537 447.250 C 284.450 442.568, 282.778 441.370, 285.444 445.750 L 287.119 448.500 284.908 446 C 283.691 444.625, 280.558 439, 277.946 433.500 C 272.993 423.076, 270.844 417.174, 273.029 420 C 274.013 421.272, 274.098 421.222, 273.594 419.668 C 273.267 418.661, 272.993 417.311, 272.985 416.668 C 272.974 415.880, 272.701 415.923, 272.145 416.800 C 271.606 417.649, 270.544 415.483, 269.079 410.548 C 264.467 395.011, 263.600 387.706, 263.616 364.500 C 263.629 345.627, 263.945 341.042, 265.836 332.244 C 268.113 321.648, 273.215 306.419, 276.921 299.154 C 280.401 292.333, 280.092 294.435, 276.343 303.086 C 274.416 307.534, 272.998 311.332, 273.193 311.526 C 273.388 311.721, 275.069 308.420, 276.930 304.190 C 280.818 295.352, 290.796 279.835, 297.355 272.426 C 303.561 265.416, 314.112 256.968, 323.557 251.444 C 327.926 248.889, 330.689 247.064, 329.698 247.388 C 328.707 247.712, 328.145 247.575, 328.449 247.083 C 329.516 245.356, 345.598 240.212, 354.926 238.615 C 360.111 237.727, 368.661 237.088, 373.926 237.196 L 383.500 237.391 373 238 L 362.500 238.609 371.103 238.804 C 375.835 238.912, 382.360 239.173, 385.603 239.385 C 390.031 239.674, 390.628 239.579, 388 239.002 C 385.484 238.450, 386.252 238.349, 390.734 238.643 C 394.162 238.868, 397.987 239.474, 399.234 239.989 C 400.946 240.697, 400.401 240.804, 397 240.426 C 394.084 240.101, 395.844 240.836, 402 242.514 C 407.225 243.938, 416.225 247.421, 422 250.254 C 427.775 253.087, 432.900 255.597, 433.389 255.832 C 433.878 256.067, 433.919 255.639, 433.479 254.880 C 433.007 254.065, 433.052 253.841, 433.590 254.333 C 434.090 254.792, 434.500 255.515, 434.500 255.941 C 434.500 256.367, 438.100 259.453, 442.500 262.797 C 446.900 266.142, 453.425 271.605, 457 274.939 C 460.575 278.272, 463.860 280.999, 464.300 280.999 C 465.025 281, 477.660 269.312, 502.136 246 L 511.060 237.500 503.130 228.481 C 495.036 219.275, 480.476 206.080, 471.500 199.818 C 465.031 195.304, 459 191.699, 459 192.346 C 459 192.626, 461.744 194.522, 465.099 196.560 C 476.730 203.626, 492.964 218.101, 504.281 231.500 C 507.069 234.800, 504.292 232.221, 498.110 225.769 C 473.446 200.025, 450.208 185.816, 416.606 175.934 C 411.048 174.300, 408.300 173.226, 410.500 173.549 C 417.365 174.557, 435.012 180.854, 446.750 186.485 C 452.938 189.453, 458 191.687, 458 191.450 C 458 191.213, 453.613 188.817, 448.250 186.126 C 432.912 178.428, 416.323 172.995, 401 170.648 L 393.500 169.500 392.959 161 L 392.417 152.500 391.847 160.500 C 391.485 165.587, 391.373 163.541, 391.539 154.879 L 391.801 141.259 383.451 140.581 C 374.849 139.883, 358.430 140.062, 347 140.979 M 361.784 141.738 C 364.689 141.941, 369.189 141.939, 371.784 141.734 C 374.378 141.528, 372 141.363, 366.500 141.365 C 361 141.368, 358.878 141.536, 361.784 141.738 M 341.180 155.750 C 341.363 169.697, 341.750 168.043, 342.234 151.248 C 342.380 146.159, 342.163 141.996, 341.750 141.998 C 341.337 141.999, 341.081 148.188, 341.180 155.750 M 83.586 174.327 C 75.524 185.624, 59.963 212, 61.359 212 C 61.574 212, 64.576 206.955, 68.029 200.789 C 71.482 194.623, 77.588 184.723, 81.598 178.789 C 89.556 167.015, 90.804 164.212, 83.586 174.327 M 308.500 179.963 C 305.200 181.539, 302.950 182.833, 303.500 182.838 C 304.832 182.850, 316.784 177.161, 315.500 177.126 C 314.950 177.111, 311.800 178.388, 308.500 179.963 M 674.658 211.652 C 678.971 219.986, 682.664 226.647, 682.864 226.455 C 683.313 226.023, 669.215 198.884, 667.823 197.500 C 667.269 196.950, 670.345 203.318, 674.658 211.652 M 55.729 222.754 C 50.189 234.462, 47.841 240.174, 48.356 240.689 C 48.566 240.900, 49.773 238.468, 51.037 235.286 C 52.301 232.104, 55.089 225.966, 57.231 221.647 C 59.374 217.327, 60.950 213.616, 60.734 213.401 C 60.518 213.185, 58.266 217.394, 55.729 222.754 M 642.500 229 C 644.439 232.850, 646.230 236, 646.480 236 C 647.083 236, 646.059 233.617, 642.720 227.250 C 641.205 224.363, 639.743 222, 639.471 222 C 639.198 222, 640.561 225.150, 642.500 229 M 92.567 229.867 C 89.034 236.839, 89.363 237.722, 93.021 231.086 C 94.662 228.108, 95.809 225.476, 95.570 225.236 C 95.330 224.997, 93.979 227.081, 92.567 229.867 M 683.174 228.500 C 684.714 233.224, 694.485 256.849, 694.777 256.557 C 695.246 256.087, 685.380 231.050, 683.918 229 C 683.329 228.175, 682.994 227.950, 683.174 228.500 M 496.302 249.265 C 489.043 255.994, 478.810 265.489, 473.562 270.364 L 464.021 279.227 455.854 271.545 C 448.843 264.949, 436 255.104, 436 256.325 C 436 256.545, 439.261 259.149, 443.246 262.113 C 447.231 265.076, 453.513 270.350, 457.206 273.834 C 461.612 277.990, 464.364 279.902, 465.210 279.395 C 465.920 278.970, 473.925 271.592, 483 263 C 492.075 254.407, 501.975 245.052, 505 242.210 C 508.025 239.368, 510.275 237.040, 510 237.036 C 509.725 237.032, 503.561 242.535, 496.302 249.265 M 352.500 240.051 C 350.527 240.587, 351.555 240.674, 355.500 240.308 C 358.800 240.001, 361.688 239.581, 361.917 239.375 C 362.661 238.706, 355.585 239.214, 352.500 240.051 M 339.186 243.449 C 335.713 244.739, 332.563 246.137, 332.186 246.557 C 331.809 246.976, 332.400 246.965, 333.500 246.532 C 334.600 246.100, 338.650 244.698, 342.500 243.418 C 346.350 242.137, 348.600 241.093, 347.500 241.097 C 346.400 241.101, 342.659 242.160, 339.186 243.449 M 409.500 243.803 C 413.900 245.366, 420.762 248.305, 424.750 250.335 C 432.659 254.360, 434.625 254.638, 427.661 250.746 C 421.584 247.349, 409.172 242.333, 405 241.587 C 403.075 241.243, 405.100 242.240, 409.500 243.803 M 45.063 247.563 C 43.889 250.698, 43.104 253.437, 43.317 253.650 C 43.530 253.863, 44.653 251.461, 45.813 248.313 C 46.972 245.164, 47.758 242.425, 47.558 242.225 C 47.359 242.025, 46.236 244.427, 45.063 247.563 M 317.586 253.008 C 304.277 261.696, 287.532 279.480, 281.108 291.750 C 278.731 296.289, 280.810 293.792, 286.087 285.771 C 295.170 271.964, 307.555 260.020, 321.500 251.620 C 324.800 249.632, 326.995 248.004, 326.378 248.003 C 325.761 248.001, 321.805 250.253, 317.586 253.008 M 40.600 260.600 C 39.633 263.667, 39.022 266.356, 39.242 266.576 C 39.462 266.796, 40.433 264.467, 41.400 261.400 C 42.367 258.333, 42.978 255.644, 42.758 255.424 C 42.538 255.204, 41.567 257.533, 40.600 260.600 M 655.114 255.500 C 655.133 256.050, 656.014 258.300, 657.072 260.500 C 658.130 262.700, 658.715 263.375, 658.373 262 C 657.668 259.169, 655.062 253.970, 655.114 255.500 M 696.152 262 C 696.152 262.825, 696.759 265.075, 697.500 267 C 698.241 268.925, 698.848 269.825, 698.848 269 C 698.848 268.175, 698.241 265.925, 697.500 264 C 696.759 262.075, 696.152 261.175, 696.152 262 M 659.419 266.674 C 661.477 273.377, 665.860 285.345, 665.925 284.438 C 666.023 283.053, 660.214 265.869, 659.386 265.094 C 659.037 264.767, 659.052 265.478, 659.419 266.674 M 699.147 271.500 C 699.117 272.050, 700.199 276.325, 701.551 281 C 702.903 285.675, 703.758 287.794, 703.452 285.709 C 702.868 281.743, 699.239 269.764, 699.147 271.500 M 67.132 297.429 C 65.959 302.103, 65.029 306.731, 65.065 307.714 C 65.101 308.696, 66.233 305.045, 67.581 299.599 C 68.929 294.154, 69.859 289.525, 69.647 289.314 C 69.436 289.103, 68.304 292.754, 67.132 297.429 M 704.156 291 C 704.121 291.825, 704.959 296.325, 706.019 301 C 707.079 305.675, 707.717 307.475, 707.436 305 C 706.848 299.830, 704.254 288.751, 704.156 291 M 201.533 297.533 C 200.625 300.658, 200.068 303.401, 200.295 303.629 C 200.523 303.856, 201.440 301.473, 202.333 298.333 C 203.227 295.193, 203.784 292.450, 203.571 292.238 C 203.359 292.025, 202.442 294.408, 201.533 297.533 M 29.545 303.545 C 29.163 306.096, 29.055 308.388, 29.305 308.638 C 29.555 308.888, 30.072 307.005, 30.455 304.455 C 30.837 301.904, 30.945 299.612, 30.695 299.362 C 30.445 299.112, 29.928 300.995, 29.545 303.545 M 196 319.500 C 195.316 323.124, 194.959 326.292, 195.206 326.540 C 195.454 326.787, 196.205 324.013, 196.875 320.375 C 197.545 316.737, 197.902 313.569, 197.669 313.335 C 197.435 313.101, 196.684 315.876, 196 319.500 M 270.071 319.762 C 268.932 323.587, 268.031 327.342, 268.068 328.108 C 268.105 328.874, 269.205 325.912, 270.511 321.526 C 271.817 317.141, 272.718 313.385, 272.514 313.180 C 272.309 312.976, 271.210 315.938, 270.071 319.762 M 709.213 319.500 C 709.192 321.150, 709.526 324.750, 709.954 327.500 C 710.591 331.589, 710.744 331.862, 710.792 329 C 710.825 327.075, 710.491 323.475, 710.051 321 C 709.469 317.728, 709.240 317.319, 709.213 319.500 M 266.672 332.891 C 266.302 334.738, 266.049 337.206, 266.110 338.375 C 266.170 339.544, 266.618 338.475, 267.105 336 C 267.592 333.525, 267.845 331.057, 267.667 330.516 C 267.489 329.974, 267.041 331.043, 266.672 332.891 M 25.286 335.500 C 25.294 338.250, 25.488 339.256, 25.718 337.736 C 25.947 336.216, 25.941 333.966, 25.704 332.736 C 25.467 331.506, 25.279 332.750, 25.286 335.500 M 711.328 339.500 C 711.333 343.350, 711.513 344.802, 711.730 342.728 C 711.946 340.653, 711.943 337.503, 711.722 335.728 C 711.501 333.952, 711.324 335.650, 711.328 339.500 M 59.675 340.503 C 59.311 344.351, 59.076 350.425, 59.151 354 C 59.245 358.477, 59.552 356.610, 60.136 348 C 61.060 334.401, 60.741 329.213, 59.675 340.503 M 676.300 339 C 676.300 342.025, 676.487 343.262, 676.716 341.750 C 676.945 340.238, 676.945 337.762, 676.716 336.250 C 676.487 334.738, 676.300 335.975, 676.300 339 M 24.365 351.500 C 24.368 357, 24.536 359.122, 24.738 356.216 C 24.941 353.311, 24.939 348.811, 24.734 346.216 C 24.528 343.622, 24.363 346, 24.365 351.500 M 192.320 350 C 192.320 353.575, 192.502 355.038, 192.723 353.250 C 192.945 351.462, 192.945 348.538, 192.723 346.750 C 192.502 344.962, 192.320 346.425, 192.320 350 M 677.420 366.500 C 677.419 377.500, 677.565 382.136, 677.745 376.803 C 677.924 371.470, 677.925 362.470, 677.746 356.803 C 677.568 351.136, 677.421 355.500, 677.420 366.500 M 711.643 372.250 C 711.280 385.587, 710.789 398.975, 710.550 402 L 710.117 407.500 711.015 402.500 C 712.003 396.999, 713.612 348, 712.804 348 C 712.528 348, 712.005 358.913, 711.643 372.250 M 264.402 365 C 264.402 373.525, 264.556 377.012, 264.743 372.750 C 264.931 368.488, 264.931 361.512, 264.743 357.250 C 264.556 352.988, 264.402 356.475, 264.402 365 M 192.088 380.583 C 192.136 384.938, 192.527 390.750, 192.956 393.500 C 193.437 396.580, 193.542 393.700, 193.230 386 C 192.657 371.898, 191.955 368.569, 192.088 380.583 M 59.320 384 C 59.320 387.575, 59.502 389.038, 59.723 387.250 C 59.945 385.462, 59.945 382.538, 59.723 380.750 C 59.502 378.962, 59.320 380.425, 59.320 384 M 676.300 394 C 676.300 397.025, 676.487 398.262, 676.716 396.750 C 676.945 395.238, 676.945 392.762, 676.716 391.250 C 676.487 389.738, 676.300 390.975, 676.300 394 M 266.497 394.476 C 267.108 400.252, 271.017 415.316, 271.721 414.612 C 271.984 414.349, 271.661 412.503, 271.003 410.509 C 270.345 408.516, 268.944 402.973, 267.888 398.192 C 266.646 392.563, 266.156 391.253, 266.497 394.476 M 60.286 397.500 C 60.294 400.250, 60.488 401.256, 60.718 399.736 C 60.947 398.216, 60.941 395.966, 60.704 394.736 C 60.467 393.506, 60.279 394.750, 60.286 397.500 M 194.118 402.083 C 194.183 403.962, 194.603 406.850, 195.051 408.500 C 195.587 410.473, 195.674 409.445, 195.308 405.500 C 194.693 398.887, 193.932 396.702, 194.118 402.083 M 61.548 408.500 C 62.109 415.630, 66.047 437.286, 66.670 436.664 C 66.909 436.425, 66.193 431.340, 65.080 425.365 C 63.967 419.389, 62.611 411.800, 62.066 408.500 L 61.076 402.500 61.548 408.500 M 26.058 409.583 C 26.089 411.738, 26.507 415.300, 26.985 417.500 C 27.630 420.465, 27.711 419.560, 27.297 414 C 26.693 405.867, 25.965 403.274, 26.058 409.583 M 673.538 413.538 C 673.152 416.635, 673.060 419.393, 673.335 419.668 C 673.610 419.943, 674.152 417.635, 674.538 414.538 C 674.925 411.442, 675.017 408.684, 674.742 408.409 C 674.467 408.134, 673.925 410.442, 673.538 413.538 M 707.630 420.630 C 706.676 427.009, 706.092 432.425, 706.332 432.665 C 706.571 432.905, 707.556 427.889, 708.519 421.519 C 709.481 415.148, 710.066 409.732, 709.816 409.483 C 709.567 409.234, 708.583 414.250, 707.630 420.630 M 196.109 413 C 196.070 413.825, 196.665 416.750, 197.430 419.500 C 198.195 422.250, 198.853 423.825, 198.891 423 C 198.930 422.175, 198.335 419.250, 197.570 416.500 C 196.805 413.750, 196.147 412.175, 196.109 413 M 671.600 425.100 C 671.234 427.392, 671.129 429.462, 671.368 429.701 C 671.606 429.940, 672.116 428.274, 672.500 426 C 672.884 423.726, 672.989 421.655, 672.732 421.399 C 672.476 421.143, 671.966 422.808, 671.600 425.100 M 28.081 424.343 C 27.882 428.869, 36.706 466.627, 37.725 465.608 C 37.961 465.372, 37.164 461.651, 35.954 457.339 C 34.743 453.028, 32.495 443.425, 30.958 436 C 29.420 428.575, 28.126 423.329, 28.081 424.343 M 199.065 425.738 C 198.948 427.962, 205.147 446.239, 209.150 455.473 C 218.267 476.503, 232.807 497.602, 249.645 514.234 C 259.325 523.796, 271.651 533.754, 278.188 537.294 C 281.373 539.018, 281.405 539.018, 279.026 537.294 C 258.859 522.672, 246.987 511.818, 236.053 498.003 C 219.916 477.615, 211.164 461.090, 202.419 434.500 C 200.610 429, 199.101 425.057, 199.065 425.738 M 277 429.362 C 277 430.447, 282.968 442, 283.529 442 C 283.804 442, 282.619 439.188, 280.896 435.750 C 277.630 429.234, 277 428.202, 277 429.362 M 67.079 438.580 C 66.946 440.400, 73.918 465.048, 75.069 466.828 C 76.002 468.270, 76.061 468.224, 75.495 466.500 C 75.134 465.400, 73.295 458.875, 71.408 452 C 67.681 438.419, 67.200 436.927, 67.079 438.580 M 664.593 453.776 C 661.079 466.012, 660.535 468.580, 662.533 463.500 C 664.624 458.184, 668.269 444.936, 667.776 444.443 C 667.562 444.228, 666.129 448.428, 664.593 453.776 M 452.812 458.513 C 440.448 470.448, 429.039 478.715, 416.898 484.533 C 412.829 486.483, 410.625 487.777, 412 487.409 C 421.976 484.737, 441.975 471.036, 454.761 458.115 C 459.994 452.827, 464.889 448.632, 465.638 448.794 C 467.351 449.163, 467.427 448.378, 465.740 447.731 C 465.048 447.465, 459.230 452.317, 452.812 458.513 M 38.053 467.554 C 37.981 468.981, 44.550 488.392, 45.879 490.676 C 46.462 491.679, 46.946 492.275, 46.954 492 C 46.984 490.946, 38.104 466.555, 38.053 467.554 M 694.727 475.227 C 693.256 479.715, 692.219 483.553, 692.423 483.756 C 692.627 483.960, 694.011 480.470, 695.500 476 C 696.989 471.530, 698.025 467.692, 697.804 467.471 C 697.583 467.250, 696.198 470.740, 694.727 475.227 M 656.244 479.230 C 652.948 487.705, 652.635 488.742, 653.901 487 C 655.335 485.027, 659.181 474.848, 658.682 474.348 C 658.468 474.135, 657.371 476.331, 656.244 479.230 M 322 480.548 C 322 482.608, 348.361 492.128, 353.480 491.917 C 354.591 491.871, 352.800 491.183, 349.500 490.388 C 341.668 488.501, 332.677 485.324, 326.750 482.350 C 324.137 481.039, 322 480.228, 322 480.548 M 395.500 490.523 C 392.666 491.251, 391.583 491.816, 393 491.827 C 394.375 491.838, 397.300 491.253, 399.500 490.528 C 404.605 488.845, 402.039 488.842, 395.500 490.523 M 646.323 502.093 C 642.926 509.192, 640.364 515, 640.630 515 C 641.302 515, 653.329 489.994, 652.871 489.547 C 652.667 489.348, 649.720 494.993, 646.323 502.093 M 85.024 492.318 C 85.011 492.767, 88.156 499.354, 92.012 506.955 C 100.326 523.339, 110.922 540.177, 122.153 554.848 C 134.182 570.561, 149.894 588.440, 150.841 587.492 C 151.082 587.251, 147.411 582.990, 142.684 578.022 C 124.612 559.032, 106.844 533.647, 93.322 507.500 C 88.771 498.700, 85.037 491.868, 85.024 492.318 M 47 493.390 C 47 494.979, 54.356 511.741, 59.958 522.916 C 66.185 535.338, 74.665 550.100, 77.527 553.500 C 78.920 555.155, 78.901 554.982, 77.417 552.500 C 66.304 533.916, 57.168 516.283, 51.401 502.290 C 47.841 493.652, 47 491.951, 47 493.390 M 499.999 504.308 C 488.452 517.424, 471.609 531.088, 456.734 539.406 C 453.030 541.478, 450 543.400, 450 543.678 C 450 544.685, 463.685 536.665, 471.379 531.149 C 475.712 528.042, 482.552 522.575, 486.580 519 C 494.403 512.055, 506.515 499.182, 505.851 498.517 C 505.630 498.297, 502.997 500.903, 499.999 504.308 M 677.218 518.994 C 674.962 523.947, 673.336 528, 673.604 528 C 674.266 528, 682.136 510.803, 681.682 510.348 C 681.483 510.150, 679.475 514.040, 677.218 518.994 M 669 535 C 667.878 537.200, 667.184 539, 667.459 539 C 667.734 539, 668.878 537.200, 670 535 C 671.122 532.800, 671.816 531, 671.541 531 C 671.266 531, 670.122 532.800, 669 535 M 287 542.495 C 287 543.165, 299.122 549.211, 299.569 548.764 C 299.771 548.563, 297.025 546.962, 293.468 545.208 C 289.911 543.454, 287 542.233, 287 542.495 M 442.701 546.591 C 436.714 549.706, 420.223 555.260, 409 557.940 C 403.050 559.361, 402 559.796, 405.500 559.389 C 412.946 558.523, 432.399 552.375, 441.500 548.010 C 445.900 545.900, 449.050 544.155, 448.500 544.133 C 447.950 544.111, 445.340 545.217, 442.701 546.591 M 616.108 553.511 C 602.322 572.124, 580.666 594.423, 562.165 609.055 C 557.729 612.563, 554.275 615.608, 554.488 615.821 C 555.098 616.431, 570.518 603.773, 581.293 593.818 C 586.679 588.841, 595.476 579.759, 600.843 573.635 C 611.385 561.603, 623.447 546.113, 622.787 545.453 C 622.562 545.229, 619.557 548.855, 616.108 553.511 M 305.500 551.522 C 308.250 552.817, 311.175 553.886, 312 553.896 C 312.825 553.907, 310.836 552.809, 307.580 551.458 C 300.134 548.366, 298.884 548.405, 305.500 551.522 M 85.787 566.118 C 112.506 605.371, 153.622 643.397, 195.500 667.586 C 205.815 673.544, 233.024 687.027, 234.607 686.965 C 235.098 686.946, 228.687 683.626, 220.360 679.588 C 195.410 667.489, 174.837 654.618, 154 638.071 C 130.192 619.165, 103.205 590.136, 86.302 565.251 C 83.175 560.648, 80.183 556.613, 79.652 556.285 C 79.122 555.957, 81.882 560.382, 85.787 566.118 M 321.500 556.865 C 322.600 557.347, 325.075 558.026, 327 558.375 C 329.403 558.811, 329.873 558.735, 328.500 558.135 C 327.400 557.653, 324.925 556.974, 323 556.625 C 320.597 556.189, 320.127 556.265, 321.500 556.865 M 392.108 578 C 391.983 581.575, 391.529 586.638, 391.099 589.250 C 390.669 591.862, 390.657 594, 391.073 594 C 392.069 594, 393.284 580.606, 392.753 575.500 C 392.439 572.484, 392.280 573.099, 392.108 578 M 342.272 584 C 342.272 586.475, 342.467 587.487, 342.706 586.250 C 342.944 585.013, 342.944 582.987, 342.706 581.750 C 342.467 580.513, 342.272 581.525, 342.272 584 M 359.750 594.744 C 364.288 594.929, 371.712 594.929, 376.250 594.744 C 380.788 594.559, 377.075 594.407, 368 594.407 C 358.925 594.407, 355.212 594.559, 359.750 594.744 M 543.082 622.048 C 534.266 628.284, 531.409 630.676, 536.500 627.557 C 543.927 623.009, 553.616 615.696, 551.750 616.047 C 551.612 616.073, 547.712 618.773, 543.082 622.048 M 509.674 641.697 C 508.120 642.514, 507.066 643.399, 507.331 643.665 C 507.856 644.189, 514 641.250, 514 640.474 C 514 639.731, 512.735 640.088, 509.674 641.697 M 492.500 650 C 489.200 651.566, 486.950 652.859, 487.500 652.874 C 488.050 652.889, 491.200 651.612, 494.500 650.037 C 497.800 648.461, 500.050 647.167, 499.500 647.162 C 498.950 647.157, 495.800 648.434, 492.500 650 M 466 660.051 C 458.575 662.709, 453.012 664.909, 453.639 664.942 C 454.990 665.011, 477.830 657.213, 479.999 655.941 C 482.927 654.224, 479.334 655.279, 466 660.051 M 258 656.338 C 258 657.068, 284.514 665.644, 289 666.365 L 292.500 666.927 289 665.821 C 276.843 661.978, 260.308 656.665, 259.250 656.262 C 258.563 656, 258 656.034, 258 656.338 M 294.500 667.889 C 295.600 668.360, 298.525 669.018, 301 669.352 C 303.961 669.751, 304.645 669.677, 303 669.135 C 299.266 667.905, 292.076 666.851, 294.500 667.889 M 436.500 668.541 L 431.500 669.890 436 669.318 C 438.475 669.003, 441.400 668.381, 442.500 667.936 C 445.618 666.675, 442.104 667.029, 436.500 668.541 M 308 671 C 309.375 671.440, 311.625 671.792, 313 671.782 C 315.246 671.765, 315.195 671.686, 312.500 671 C 310.850 670.580, 308.600 670.228, 307.500 670.218 C 305.933 670.203, 306.041 670.373, 308 671 M 410.500 673 L 406.500 673.716 410 673.740 C 411.925 673.753, 414.850 673.420, 416.500 673 C 419.151 672.326, 419.209 672.239, 417 672.260 C 415.625 672.273, 412.700 672.606, 410.500 673 M 511.826 680.338 C 503.205 684.268, 496.308 687.642, 496.501 687.834 C 497.011 688.344, 526.951 674.888, 527.583 673.865 C 528.261 672.768, 529.932 672.082, 511.826 680.338 M 389.768 675.725 C 391.565 675.947, 394.265 675.943, 395.768 675.715 C 397.271 675.486, 395.800 675.304, 392.500 675.310 C 389.200 675.315, 387.971 675.502, 389.768 675.725 M 358.750 676.744 C 363.288 676.929, 370.712 676.929, 375.250 676.744 C 379.788 676.559, 376.075 676.407, 367 676.407 C 357.925 676.407, 354.212 676.559, 358.750 676.744 M 238 688.339 C 239.375 689.115, 241.625 690.048, 243 690.412 L 245.500 691.073 243 689.661 C 241.625 688.885, 239.375 687.952, 238 687.588 L 235.500 686.927 238 688.339 M 246.094 691.386 C 246.869 692.214, 264.053 698.023, 265.438 697.925 C 266.022 697.883, 262.753 696.553, 258.174 694.968 C 247.164 691.158, 245.387 690.631, 246.094 691.386 M 477.500 694.085 C 474.750 695.147, 473.800 695.762, 475.390 695.453 C 478.534 694.842, 485.124 692.166, 483.500 692.159 C 482.950 692.157, 480.250 693.024, 477.500 694.085 M 463.158 698.024 C 455.476 700.290, 453.474 701.152, 457.500 700.462 C 461.636 699.752, 472.848 696.186, 471 696.168 C 470.175 696.160, 466.646 696.995, 463.158 698.024 M 270.522 699.403 C 272.733 700.139, 276.108 701.009, 278.022 701.337 C 281.338 701.906, 281.313 701.872, 277.478 700.597 C 275.267 699.861, 271.892 698.991, 269.978 698.663 C 266.662 698.094, 266.687 698.128, 270.522 699.403 M 446 702.500 C 443.525 703.217, 442.175 703.839, 443 703.883 C 443.825 703.926, 446.750 703.335, 449.500 702.570 C 452.250 701.805, 453.600 701.183, 452.500 701.188 C 451.400 701.192, 448.475 701.783, 446 702.500 M 284 703 C 285.375 703.440, 287.400 703.801, 288.500 703.801 C 290.084 703.801, 289.980 703.634, 288 703 C 286.625 702.560, 284.600 702.199, 283.500 702.199 C 281.916 702.199, 282.020 702.366, 284 703 M 425 706.500 C 421.425 707.191, 419.625 707.790, 421 707.831 C 422.375 707.873, 426.425 707.306, 430 706.573 C 433.575 705.839, 435.375 705.240, 434 705.241 C 432.625 705.243, 428.575 705.809, 425 706.500 M 399.500 709.511 C 391.675 710.370, 390.087 710.735, 394 710.774 C 397.025 710.804, 403.775 710.253, 409 709.550 C 421.015 707.933, 414.124 707.904, 399.500 709.511 M 327 710 C 332.713 710.833, 344.646 711.277, 343.917 710.630 C 343.688 710.426, 338.550 710.021, 332.500 709.729 C 325.004 709.367, 323.252 709.454, 327 710 M 355.803 711.746 C 361.470 711.925, 370.470 711.924, 375.803 711.745 C 381.136 711.565, 376.500 711.419, 365.500 711.420 C 354.500 711.421, 350.136 711.568, 355.803 711.746" stroke="none" fill="#005f73" fill-rule="evenodd"/></svg>