<svg width="720" height="720" viewBox="0 0 720 720" xmlns="http://www.w3.org/2000/svg"><rect width="720" height="720" fill="#ffff"/><path d="M1164.3586168549011,741.9999999999999C1188.2044558283305,815.4515359607511,1194.3809997160938,949.2550971448939,1144.5640897740316,989.9791594311778C1094.7471798319693,1030.7032217174617,938.6091143406068,949.2709588151632,865.4571572025279,986.3443737177035C792.3052000644491,1023.4177886202439,765.8447402716338,1195.7958263894675,705.6523469455584,1212.4196488464197C645.459953619483,1229.043471303372,570.7068280914226,1144.9820731599373,504.30279724607556,1086.0873084594164C437.8987664007285,1027.1925437588955,330.5357769263203,933.1955538163043,307.2281618734762,859.0510606432944C283.9205468206321,784.9065674702845,339.2763556204867,703.5579965983086,364.45710692901093,641.2203494213568C389.63785823753517,578.882702244405,402.39580041661986,538.2985106262132,458.3126697246216,485.02517758158376C514.2295390326234,431.75184453695437,617.6876417559838,347.6402804020998,699.9583227770216,321.5803511535803C782.2290037980595,295.5204219050608,901.6816336581097,290.71733667161834,951.9367558508487,328.6656020904667C1002.1918780435877,366.613867509315,966.0854124327805,480.3808773484147,1001.4890559334558,549.2699436666702C1036.8926994341311,618.1590099849258,1140.5127778814717,668.5484640392486,1164.3586168549011,741.9999999999999C1188.2044558283305,815.4515359607511,1194.3809997160938,949.2550971448939,1144.5640897740316,989.9791594311778" fill="#005f73"/><path d="M257.9536538080757,48.99999999999993C247.04325868102,98.66866554887172,227.80188073827173,136.71064546895335,205.9136890870201,183.19224523667927C184.02549743576844,229.6738450044052,160.0591939954002,315.36981547733365,126.62450390056593,327.8895986063555C93.18981380573166,340.40938173537734,40.7954561783652,284.2455543092915,5.305548518014497,258.3109440108102C-30.184359142336206,232.3763337123289,-62.07969131884043,204.53780243876304,-86.31494206153832,172.28193681546765C-110.5501928042362,140.02607119217225,-107.01713093437098,100.07603424902062,-140.1059559381728,64.77575027103788C-173.1947809419746,29.475466293055135,-286.78943982520155,-0.43632995620959747,-284.84789208434927,-39.51976705242882C-282.906344343497,-78.60320414864805,-175.4822429267864,-133.82042805430228,-128.4566694930591,-169.72487230627746C-81.43109605933182,-205.62931655825264,-50.207980380923054,-263.3165024276885,-2.694451481985567,-254.9464325642798C44.81907741695192,-246.57636270087113,110.94608534534248,-142.85890054378007,156.6245039005658,-119.50445312582534C202.30292245578912,-96.1500057078706,254.48786819810272,-142.90382357752233,271.37605984935436,-114.81974805655145C288.264251500606,-86.73567253558058,268.86404893513145,-0.6686655488718571,257.9536538080757,48.99999999999993C247.04325868102,98.66866554887172,227.80188073827173,136.71064546895335,205.9136890870201,183.19224523667927" fill="#005f73"/></svg>